PathFileType	4	(X/Y/Z)	E:\Qualisys_Data\Carbon_Farble_Plate\Data\Amateur_Runner\S1\T1\S1T1V22_c3d.trc
DataRate	CameraRate	NumFrames	NumMarkers	Units	OrigDataRate	OrigDataStartFrame	OrigNumFrames
200.000000	200.000000	4	39	mm	200.000000	104	278
Frame#	Time	LSHO			RSHO			LICST			RICST			LASIS			LHEEL			RASIS			LTROC			RTROC			SACR			LTH1			LSK4			LTH2			LTH3			RHM5			LSK2			LTH4			RTH1			LTOE			RTH2			RTH3			RTH4			LLEP			RLEP			LSK1			LSK3			RSK1			LHM5			RSK2			LFT1			RSK3			RSK4			LLME			RLME			RTOE			RHEEL			RFT1			RFT2			LFT2			
		X1	Y1	Z1	X2	Y2	Z2	X3	Y3	Z3	X4	Y4	Z4	X5	Y5	Z5	X6	Y6	Z6	X7	Y7	Z7	X8	Y8	Z8	X9	Y9	Z9	X10	Y10	Z10	X11	Y11	Z11	X12	Y12	Z12	X13	Y13	Z13	X14	Y14	Z14	X15	Y15	Z15	X16	Y16	Z16	X17	Y17	Z17	X18	Y18	Z18	X19	Y19	Z19	X20	Y20	Z20	X21	Y21	Z21	X22	Y22	Z22	X23	Y23	Z23	X24	Y24	Z24	X25	Y25	Z25	X26	Y26	Z26	X27	Y27	Z27	X28	Y28	Z28	X29	Y29	Z29	X30	Y30	Z30	X31	Y31	Z31	X32	Y32	Z32	X33	Y33	Z33	X34	Y34	Z34	X35	Y35	Z35	X36	Y36	Z36	X37	Y37	Z37	X38	Y38	Z38	X39	Y39	Z39	

105	0.52	-523.6621704101562	1471.328857421875	-515.1663818359375	-554.2892456054688	1479.891723632812	-182.4862518310547	-582.8018798828125	1016.282836914062	-474.9552612304688	-587.0433349609375	1037.282104492188	-173.6807250976562	-538.765625	978.3522338867188	-447.4253540039062	-927.3473510742188	119.2941131591797	-357.24365234375	-544.6270141601562	992.2949829101562	-182.4233551025391	-654.770263671875	897.1022338867188	-487.1854553222656	-641.8223266601562	894.432861328125	-148.9453887939453	-702.62548828125	1040.397583007812	-321.2649536132812	-542.2062377929688	737.615234375	-466.5949096679688	-831.6882934570312	264.9616394042969	-394.5410461425781	-624.1510009765625	737.4176635742188	-489.391845703125	-550.6246337890625	635.180908203125	-446.9504089355469	-636.8836059570312	206.61962890625	-160.2900085449219	-772.7639770507812	340.7477722167969	-435.3921813964844	-635.5796508789062	640.9586181640625	-461.8327331542969	-464.6659851074219	839.872802734375	-166.3057403564453	-677.642578125	57.18650054931641	-365.5653381347656	-525.1927490234375	792.8524780273438	-139.586181640625	-402.365478515625	758.8187255859375	-166.4258575439453	-467.5874938964844	711.4639282226562	-148.1915893554688	-616.2615966796875	486.2011413574219	-419.6374816894531	-360.7789611816406	584.1618041992188	-186.0265502929688	-706.63232421875	292.8786926269531	-415.9407653808594	-770.0201416015625	214.6680908203125	-409.5429382324219	-488.0140991210938	457.2713623046875	-175.7455291748047	-744.9097290039062	60.85688400268555	-426.1132202148438	-539.3599243164062	519.48681640625	-193.1207427978516	-922.1873779296876	89.94780731201172	-330.2309875488281	-562.569091796875	391.2917785644531	-188.7546234130859	-611.341552734375	451.4350280761719	-213.9168853759766	-862.6187133789062	135.5518493652344	-403.6846008300781	-681.9130859375	335.1489868164062	-192.2017364501953	-566.0142822265625	172.4208526611328	-232.0471649169922	-757.0685424804688	344.043212890625	-242.0426483154297	-764.1541137695312	312.1943664550781	-271.6818542480469	-769.6293334960938	324.3713989257812	-214.9008941650391	-928.6632080078124	92.0593719482422	-384.7051391601562
106	0.525	-500.8014221191406	1474.431518554688	-513.2793579101562	-536.0186157226562	1483.13232421875	-181.3260192871094	-559.5081787109375	1017.572692871094	-475.6192321777344	-565.8989868164062	1041.0859375	-174.0436859130859	-516.3889770507812	979.1455078125	-446.693115234375	-923.4700317382812	126.8084945678711	-357.5426025390625	-523.21435546875	995.9348754882812	-182.2063446044922	-633.6543579101562	899.123046875	-486.3451843261719	-620.312744140625	898.6243286132812	-148.4885711669922	-680.1533813476562	1043.337646484375	-322.5172424316406	-524.8784790039062	737.6348876953125	-463.8402404785156	-826.8598022460938	271.2088928222656	-393.8123779296875	-606.6903686523438	740.0586547851562	-488.0450439453125	-536.4352416992188	635.9740600585938	-444.0182189941406	-593.6746215820312	199.5962371826172	-158.8568420410156	-767.4638061523438	346.7146301269531	-434.086669921875	-620.8922119140625	643.71826171875	-460.3182983398438	-442.7366333007812	845.5980834960938	-166.2514495849609	-677.074462890625	57.37505722045898	-365.3808898925781	-502.7399291992188	797.9161987304688	-139.9654693603516	-379.4434509277344	765.5147705078125	-166.3462829589844	-443.5113220214844	717.09619140625	-149.2005310058594	-607.7376098632812	488.77587890625	-418.136962890625	-335.3819885253906	591.0641479492188	-185.3291625976562	-701.6444091796875	297.6127624511719	-414.9703979492188	-766.3629150390625	220.2771759033203	-408.9436340332031	-457.3457641601562	458.4010009765625	-174.6809539794922	-744.0363159179688	61.89579772949219	-426.0784301757812	-511.8582458496094	517.5983276367188	-192.3589019775391	-919.5955200195312	98.63524627685548	-330.2760620117188	-528.5103149414062	388.7168884277344	-186.2643127441406	-580.3221435546875	445.6559143066406	-213.0083465576172	-859.3602294921875	141.6329040527344	-403.8788757324219	-645.27099609375	326.4599304199219	-190.2844696044922	-521.742431640625	169.5044097900391	-229.1757507324219	-720.4003295898438	331.0078430175781	-240.6789245605469	-725.4747924804688	298.8073425292969	-270.1091918945312	-732.2613525390625	310.7361450195312	-213.5552978515625	-925.3783569335938	99.7156982421875	-385.0572814941406
107	0.53	-477.8403930664062	1478.077758789062	-511.5129089355469	-518.1463623046875	1486.379150390625	-180.4040374755859	-536.5903930664062	1019.015747070312	-474.100341796875	-544.7130737304688	1044.648315429688	-174.4739837646484	-493.8563232421875	980.7933959960938	-446.1779479980469	-919.358642578125	134.3169097900391	-358.0364379882812	-502.062744140625	999.3211059570312	-181.1801452636719	-612.5796508789062	901.9334106445312	-485.7503662109375	-598.3014526367188	902.7417602539062	-147.6165008544922	-657.8553466796875	1046.421875	-323.386474609375	-507.297119140625	738.4940795898438	-460.7511901855469	-821.2539672851562	277.6122131347656	-392.6568603515625	-588.3168334960938	743.0969848632812	-487.0283813476562	-521.6917724609375	637.6433715820312	-440.98828125	-550.1775512695312	193.0629425048828	-157.3893585205078	-761.1624755859375	352.6968994140625	-432.5310974121094	-605.7529296875	647.275146484375	-458.9975891113281	-420.8058776855469	851.2528686523438	-166.461181640625	-676.3598022460938	57.34523773193359	-364.8761901855469	-479.8528747558594	802.7636108398438	-139.7171630859375	-356.6303100585938	771.7077026367188	-166.1189270019531	-419.9246215820312	722.5321655273438	-149.1793670654297	-598.8173828125	491.7787780761719	-416.2590637207031	-310.5575561523438	597.4544067382812	-185.1125030517578	-695.9623413085938	303.0291442871094	-415.1952819824219	-761.8732299804688	226.2885894775391	-408.8902587890625	-426.8843688964844	458.3544006347656	-174.1631011962891	-743.3734741210938	62.96316909790039	-425.5475158691406	-484.3903503417969	515.4436645507812	-191.5257110595703	-915.7835083007812	106.301399230957	-330.9468383789062	-494.0359497070312	384.725341796875	-186.0337371826172	-548.9774780273438	439.9300842285156	-211.9929351806641	-855.1873168945312	147.9797668457031	-403.6113586425781	-608.1878051757812	317.3006896972656	-189.0805511474609	-476.5774536132812	167.089599609375	-227.3682861328125	-683.2498168945312	318.0281372070312	-239.1375274658203	-690.38671875	286.1792602539062	-267.9492797851562	-694.3839721679688	297.1249694824219	-211.9590454101562	-921.8157958984376	107.310546875	-385.3500366210938
108	0.535	-455.2620239257812	1481.803466796875	-509.4092712402344	-499.554443359375	1489.762817382812	-179.5786743164062	-513.799560546875	1021.025329589844	-473.6520690917969	-522.5866088867188	1048.90673828125	-174.490478515625	-471.5199279785156	981.669921875	-445.4725646972656	-914.57080078125	142.2174377441406	-358.9193115234375	-480.0247497558594	1003.146118164062	-181.0682830810547	-591.2349243164062	904.559326171875	-485.1048583984375	-575.9628295898438	906.9368896484376	-146.5773773193359	-635.055419921875	1049.301513671875	-323.3388977050781	-489.6685791015625	739.9147338867188	-456.9161071777344	-814.6151123046875	284.8612976074219	-391.7998352050781	-569.3627319335938	746.4783935546875	-486.2738342285156	-507.0602416992188	639.001953125	-437.1983032226562	-506.7245178222656	186.9223327636719	-155.8411102294922	-754.51806640625	359.3160400390625	-431.4228515625	-590.4014282226562	650.9075317382812	-457.902099609375	-398.2540588378906	856.2813720703125	-166.8560638427734	-675.3720092773438	57.37080001831055	-364.89892578125	-456.8588256835938	807.80517578125	-139.0402679443359	-333.6750793457031	777.410888671875	-166.4325561523438	-396.8823852539062	727.8211059570312	-149.5290985107422	-588.8209228515625	495.9050598144531	-415.6143798828125	-286.7667541503906	603.1950073242188	-184.5260009765625	-688.2001953125	310.6642761230469	-415.4936218261719	-756.0555419921875	233.0196075439453	-409.8586120605469	-396.4948120117188	458.7221069335938	-172.6116180419922	-742.4362182617188	63.90099716186523	-425.0993957519531	-457.6725769042969	512.7432861328125	-189.9077606201172	-912.1812744140624	113.3302383422852	-330.8783569335938	-459.9700927734375	381.4010009765625	-184.8119049072266	-517.8375854492188	433.8303527832031	-211.0653076171875	-850.298583984375	155.0621032714844	-403.7361145019531	-571.3922729492188	307.8729858398438	-187.6862182617188	-431.6658630371094	165.0554351806641	-225.5256805419922	-645.2832641601562	304.4662475585938	-237.5629119873047	-647.8206787109375	272.4473571777344	-268.1465759277344	-655.9712524414062	283.0663146972656	-210.8782806396484	-917.641357421875	115.0346832275391	-385.6897888183594
